<svg width="181" height="296" viewBox="0 0 181 296" fill="none" xmlns="http://www.w3.org/2000/svg">
<rect width="181" height="296" fill="#4A1863"/>
<path d="M30.3125 109V74.7344H37.5781V103H51.4766V109H30.3125ZM71.9609 109L63.7109 82.1172H63.5C63.7969 87.5859 63.9453 91.2344 63.9453 93.0625V109H57.4531V74.7344H67.3438L75.4531 100.938H75.5938L84.1953 74.7344H94.0859V109H87.3125V92.7812C87.3125 92.0156 87.3203 91.1328 87.3359 90.1328C87.3672 89.1328 87.4766 86.4766 87.6641 82.1641H87.4531L78.6172 109H71.9609ZM117.289 80.2891C114.555 80.2891 112.438 81.3203 110.938 83.3828C109.438 85.4297 108.688 88.2891 108.688 91.9609C108.688 99.6016 111.555 103.422 117.289 103.422C119.695 103.422 122.609 102.82 126.031 101.617V107.711C123.219 108.883 120.078 109.469 116.609 109.469C111.625 109.469 107.812 107.961 105.172 104.945C102.531 101.914 101.211 97.5703 101.211 91.9141C101.211 88.3516 101.859 85.2344 103.156 82.5625C104.453 79.875 106.312 77.8203 108.734 76.3984C111.172 74.9609 114.023 74.2422 117.289 74.2422C120.617 74.2422 123.961 75.0469 127.32 76.6562L124.977 82.5625C123.695 81.9531 122.406 81.4219 121.109 80.9688C119.812 80.5156 118.539 80.2891 117.289 80.2891ZM153.57 99.4844C153.57 102.578 152.453 105.016 150.219 106.797C148 108.578 144.906 109.469 140.938 109.469C137.281 109.469 134.047 108.781 131.234 107.406V100.656C133.547 101.688 135.5 102.414 137.094 102.836C138.703 103.258 140.172 103.469 141.5 103.469C143.094 103.469 144.312 103.164 145.156 102.555C146.016 101.945 146.445 101.039 146.445 99.8359C146.445 99.1641 146.258 98.5703 145.883 98.0547C145.508 97.5234 144.953 97.0156 144.219 96.5312C143.5 96.0469 142.023 95.2734 139.789 94.2109C137.695 93.2266 136.125 92.2812 135.078 91.375C134.031 90.4688 133.195 89.4141 132.57 88.2109C131.945 87.0078 131.633 85.6016 131.633 83.9922C131.633 80.9609 132.656 78.5781 134.703 76.8438C136.766 75.1094 139.609 74.2422 143.234 74.2422C145.016 74.2422 146.711 74.4531 148.32 74.875C149.945 75.2969 151.641 75.8906 153.406 76.6562L151.062 82.3047C149.234 81.5547 147.719 81.0312 146.516 80.7344C145.328 80.4375 144.156 80.2891 143 80.2891C141.625 80.2891 140.57 80.6094 139.836 81.25C139.102 81.8906 138.734 82.7266 138.734 83.7578C138.734 84.3984 138.883 84.9609 139.18 85.4453C139.477 85.9141 139.945 86.375 140.586 86.8281C141.242 87.2656 142.781 88.0625 145.203 89.2188C148.406 90.75 150.602 92.2891 151.789 93.8359C152.977 95.3672 153.57 97.25 153.57 99.4844Z" fill="white"/>
<path d="M21.9004 171V158.15H24.001V169.198H29.4414V171H21.9004ZM37.5186 171L37.1055 169.646H37.0352C36.5664 170.238 36.0947 170.643 35.6201 170.859C35.1455 171.07 34.5361 171.176 33.792 171.176C32.8369 171.176 32.0898 170.918 31.5508 170.402C31.0176 169.887 30.751 169.157 30.751 168.214C30.751 167.212 31.123 166.456 31.8672 165.946C32.6113 165.437 33.7451 165.158 35.2686 165.111L36.9473 165.059V164.54C36.9473 163.919 36.8008 163.456 36.5078 163.151C36.2207 162.841 35.7725 162.686 35.1631 162.686C34.665 162.686 34.1875 162.759 33.7305 162.905C33.2734 163.052 32.834 163.225 32.4121 163.424L31.7441 161.947C32.2715 161.672 32.8486 161.464 33.4756 161.323C34.1025 161.177 34.6943 161.104 35.251 161.104C36.4873 161.104 37.4189 161.373 38.0459 161.912C38.6787 162.451 38.9951 163.298 38.9951 164.452V171H37.5186ZM34.4424 169.594C35.1924 169.594 35.793 169.386 36.2441 168.97C36.7012 168.548 36.9297 167.959 36.9297 167.203V166.359L35.6816 166.412C34.709 166.447 34 166.611 33.5547 166.904C33.1152 167.191 32.8955 167.634 32.8955 168.231C32.8955 168.665 33.0244 169.002 33.2822 169.242C33.54 169.477 33.9268 169.594 34.4424 169.594ZM46.8438 161.104C48.0566 161.104 49 161.543 49.6738 162.422C50.3535 163.301 50.6934 164.534 50.6934 166.122C50.6934 167.716 50.3506 168.958 49.665 169.849C48.9795 170.733 48.0273 171.176 46.8086 171.176C45.5781 171.176 44.623 170.733 43.9434 169.849H43.8027L43.4248 171H41.8779V157.324H43.9434V160.576C43.9434 160.816 43.9316 161.174 43.9082 161.648C43.8848 162.123 43.8672 162.425 43.8555 162.554H43.9434C44.5996 161.587 45.5664 161.104 46.8438 161.104ZM46.3076 162.791C45.4756 162.791 44.875 163.037 44.5059 163.529C44.1426 164.016 43.9551 164.833 43.9434 165.981V166.122C43.9434 167.306 44.1309 168.164 44.5059 168.697C44.8809 169.225 45.4932 169.488 46.3428 169.488C47.0752 169.488 47.6289 169.198 48.0039 168.618C48.3848 168.038 48.5752 167.2 48.5752 166.104C48.5752 163.896 47.8193 162.791 46.3076 162.791ZM61.7148 166.122C61.7148 167.71 61.3076 168.949 60.4932 169.84C59.6787 170.73 58.5449 171.176 57.0918 171.176C56.1836 171.176 55.3809 170.971 54.6836 170.561C53.9863 170.15 53.4502 169.562 53.0752 168.794C52.7002 168.026 52.5127 167.136 52.5127 166.122C52.5127 164.546 52.917 163.315 53.7256 162.431C54.5342 161.546 55.6738 161.104 57.1445 161.104C58.5508 161.104 59.6641 161.558 60.4844 162.466C61.3047 163.368 61.7148 164.587 61.7148 166.122ZM54.6396 166.122C54.6396 168.366 55.4688 169.488 57.127 169.488C58.7676 169.488 59.5879 168.366 59.5879 166.122C59.5879 163.901 58.7617 162.791 57.1094 162.791C56.2422 162.791 55.6123 163.078 55.2197 163.652C54.833 164.227 54.6396 165.05 54.6396 166.122ZM69.0273 161.104C69.4434 161.104 69.7861 161.133 70.0557 161.191L69.8535 163.116C69.5605 163.046 69.2559 163.011 68.9395 163.011C68.1133 163.011 67.4424 163.28 66.9268 163.819C66.417 164.358 66.1621 165.059 66.1621 165.92V171H64.0967V161.279H65.7139L65.9863 162.993H66.0918C66.4141 162.413 66.833 161.953 67.3486 161.613C67.8701 161.273 68.4297 161.104 69.0273 161.104ZM77.9482 171L77.5352 169.646H77.4648C76.9961 170.238 76.5244 170.643 76.0498 170.859C75.5752 171.07 74.9658 171.176 74.2217 171.176C73.2666 171.176 72.5195 170.918 71.9805 170.402C71.4473 169.887 71.1807 169.157 71.1807 168.214C71.1807 167.212 71.5527 166.456 72.2969 165.946C73.041 165.437 74.1748 165.158 75.6982 165.111L77.377 165.059V164.54C77.377 163.919 77.2305 163.456 76.9375 163.151C76.6504 162.841 76.2021 162.686 75.5928 162.686C75.0947 162.686 74.6172 162.759 74.1602 162.905C73.7031 163.052 73.2637 163.225 72.8418 163.424L72.1738 161.947C72.7012 161.672 73.2783 161.464 73.9053 161.323C74.5322 161.177 75.124 161.104 75.6807 161.104C76.917 161.104 77.8486 161.373 78.4756 161.912C79.1084 162.451 79.4248 163.298 79.4248 164.452V171H77.9482ZM74.8721 169.594C75.6221 169.594 76.2227 169.386 76.6738 168.97C77.1309 168.548 77.3594 167.959 77.3594 167.203V166.359L76.1113 166.412C75.1387 166.447 74.4297 166.611 73.9844 166.904C73.5449 167.191 73.3252 167.634 73.3252 168.231C73.3252 168.665 73.4541 169.002 73.7119 169.242C73.9697 169.477 74.3564 169.594 74.8721 169.594ZM85.9287 169.506C86.4326 169.506 86.9365 169.427 87.4404 169.269V170.824C87.2119 170.924 86.916 171.006 86.5527 171.07C86.1953 171.141 85.8232 171.176 85.4365 171.176C83.4795 171.176 82.501 170.145 82.501 168.082V162.844H81.1738V161.93L82.5977 161.174L83.3008 159.117H84.5752V161.279H87.3438V162.844H84.5752V168.047C84.5752 168.545 84.6982 168.914 84.9443 169.154C85.1963 169.389 85.5244 169.506 85.9287 169.506ZM98.0137 166.122C98.0137 167.71 97.6064 168.949 96.792 169.84C95.9775 170.73 94.8438 171.176 93.3906 171.176C92.4824 171.176 91.6797 170.971 90.9824 170.561C90.2852 170.15 89.749 169.562 89.374 168.794C88.999 168.026 88.8115 167.136 88.8115 166.122C88.8115 164.546 89.2158 163.315 90.0244 162.431C90.833 161.546 91.9727 161.104 93.4434 161.104C94.8496 161.104 95.9629 161.558 96.7832 162.466C97.6035 163.368 98.0137 164.587 98.0137 166.122ZM90.9385 166.122C90.9385 168.366 91.7676 169.488 93.4258 169.488C95.0664 169.488 95.8867 168.366 95.8867 166.122C95.8867 163.901 95.0605 162.791 93.4082 162.791C92.541 162.791 91.9111 163.078 91.5186 163.652C91.1318 164.227 90.9385 165.05 90.9385 166.122ZM102.461 171H100.396V161.279H102.461V171ZM100.272 158.704C100.272 158.335 100.372 158.051 100.571 157.852C100.776 157.652 101.066 157.553 101.441 157.553C101.805 157.553 102.086 157.652 102.285 157.852C102.49 158.051 102.593 158.335 102.593 158.704C102.593 159.056 102.49 159.334 102.285 159.539C102.086 159.738 101.805 159.838 101.441 159.838C101.066 159.838 100.776 159.738 100.571 159.539C100.372 159.334 100.272 159.056 100.272 158.704ZM110.354 161.104C110.77 161.104 111.112 161.133 111.382 161.191L111.18 163.116C110.887 163.046 110.582 163.011 110.266 163.011C109.439 163.011 108.769 163.28 108.253 163.819C107.743 164.358 107.488 165.059 107.488 165.92V171H105.423V161.279H107.04L107.312 162.993H107.418C107.74 162.413 108.159 161.953 108.675 161.613C109.196 161.273 109.756 161.104 110.354 161.104ZM117.438 171.176C115.926 171.176 114.742 170.736 113.887 169.857C113.037 168.973 112.612 167.757 112.612 166.21C112.612 164.622 113.008 163.374 113.799 162.466C114.59 161.558 115.677 161.104 117.06 161.104C118.343 161.104 119.356 161.493 120.101 162.272C120.845 163.052 121.217 164.124 121.217 165.489V166.605H114.739C114.769 167.549 115.023 168.275 115.504 168.785C115.984 169.289 116.661 169.541 117.534 169.541C118.108 169.541 118.642 169.488 119.134 169.383C119.632 169.271 120.165 169.09 120.733 168.838V170.517C120.229 170.757 119.72 170.927 119.204 171.026C118.688 171.126 118.1 171.176 117.438 171.176ZM117.06 162.668C116.403 162.668 115.876 162.876 115.478 163.292C115.085 163.708 114.851 164.314 114.774 165.111H119.187C119.175 164.309 118.981 163.702 118.606 163.292C118.231 162.876 117.716 162.668 117.06 162.668ZM131.518 171.176C130.305 171.176 129.358 170.736 128.679 169.857C127.999 168.979 127.659 167.745 127.659 166.157C127.659 164.563 128.002 163.324 128.688 162.439C129.379 161.549 130.334 161.104 131.553 161.104C132.83 161.104 133.803 161.575 134.471 162.519H134.576C134.477 161.821 134.427 161.271 134.427 160.866V157.324H136.501V171H134.884L134.523 169.726H134.427C133.765 170.692 132.795 171.176 131.518 171.176ZM132.071 169.506C132.921 169.506 133.539 169.269 133.926 168.794C134.312 168.313 134.512 167.537 134.523 166.465V166.175C134.523 164.95 134.324 164.08 133.926 163.564C133.527 163.049 132.903 162.791 132.054 162.791C131.327 162.791 130.768 163.087 130.375 163.679C129.982 164.265 129.786 165.103 129.786 166.192C129.786 167.271 129.977 168.094 130.357 168.662C130.738 169.225 131.31 169.506 132.071 169.506ZM143.699 171.176C142.188 171.176 141.004 170.736 140.148 169.857C139.299 168.973 138.874 167.757 138.874 166.21C138.874 164.622 139.27 163.374 140.061 162.466C140.852 161.558 141.938 161.104 143.321 161.104C144.604 161.104 145.618 161.493 146.362 162.272C147.106 163.052 147.479 164.124 147.479 165.489V166.605H141.001C141.03 167.549 141.285 168.275 141.766 168.785C142.246 169.289 142.923 169.541 143.796 169.541C144.37 169.541 144.903 169.488 145.396 169.383C145.894 169.271 146.427 169.09 146.995 168.838V170.517C146.491 170.757 145.981 170.927 145.466 171.026C144.95 171.126 144.361 171.176 143.699 171.176ZM143.321 162.668C142.665 162.668 142.138 162.876 141.739 163.292C141.347 163.708 141.112 164.314 141.036 165.111H145.448C145.437 164.309 145.243 163.702 144.868 163.292C144.493 162.876 143.978 162.668 143.321 162.668ZM156.355 168.231C156.355 169.181 156.01 169.91 155.318 170.42C154.627 170.924 153.637 171.176 152.348 171.176C151.053 171.176 150.013 170.979 149.228 170.587V168.803C150.37 169.33 151.434 169.594 152.418 169.594C153.689 169.594 154.325 169.21 154.325 168.442C154.325 168.196 154.255 167.991 154.114 167.827C153.974 167.663 153.742 167.493 153.42 167.317C153.098 167.142 152.649 166.942 152.075 166.72C150.956 166.286 150.197 165.853 149.799 165.419C149.406 164.985 149.21 164.423 149.21 163.731C149.21 162.899 149.544 162.255 150.212 161.798C150.886 161.335 151.8 161.104 152.954 161.104C154.097 161.104 155.178 161.335 156.197 161.798L155.529 163.354C154.48 162.92 153.599 162.703 152.884 162.703C151.794 162.703 151.249 163.014 151.249 163.635C151.249 163.939 151.39 164.197 151.671 164.408C151.958 164.619 152.579 164.909 153.534 165.278C154.337 165.589 154.92 165.873 155.283 166.131C155.646 166.389 155.916 166.688 156.092 167.027C156.268 167.361 156.355 167.763 156.355 168.231ZM41.6934 196L37.9668 185.269H37.8965C37.9961 186.862 38.0459 188.356 38.0459 189.751V196H36.1387V183.15H39.1006L42.6689 193.372H42.7217L46.3955 183.15H49.3662V196H47.3447V189.646C47.3447 189.007 47.3594 188.175 47.3887 187.149C47.4238 186.124 47.4531 185.503 47.4766 185.286H47.4062L43.5479 196H41.6934ZM56.7754 196.176C55.2637 196.176 54.0801 195.736 53.2246 194.857C52.375 193.973 51.9502 192.757 51.9502 191.21C51.9502 189.622 52.3457 188.374 53.1367 187.466C53.9277 186.558 55.0146 186.104 56.3975 186.104C57.6807 186.104 58.6943 186.493 59.4385 187.272C60.1826 188.052 60.5547 189.124 60.5547 190.489V191.605H54.0771C54.1064 192.549 54.3613 193.275 54.8418 193.785C55.3223 194.289 55.999 194.541 56.8721 194.541C57.4463 194.541 57.9795 194.488 58.4717 194.383C58.9697 194.271 59.5029 194.09 60.0713 193.838V195.517C59.5674 195.757 59.0576 195.927 58.542 196.026C58.0264 196.126 57.4375 196.176 56.7754 196.176ZM56.3975 187.668C55.7412 187.668 55.2139 187.876 54.8154 188.292C54.4229 188.708 54.1885 189.314 54.1123 190.111H58.5244C58.5127 189.309 58.3193 188.702 57.9443 188.292C57.5693 187.876 57.0537 187.668 56.3975 187.668ZM55.0791 185.093V184.873C55.4131 184.463 55.7559 184.006 56.1074 183.502C56.4648 182.998 56.7461 182.567 56.9512 182.21H59.3506V182.395C59.0459 182.752 58.5889 183.215 57.9795 183.783C57.376 184.346 56.8662 184.782 56.4502 185.093H55.0791ZM66.5225 194.506C67.0264 194.506 67.5303 194.427 68.0342 194.269V195.824C67.8057 195.924 67.5098 196.006 67.1465 196.07C66.7891 196.141 66.417 196.176 66.0303 196.176C64.0732 196.176 63.0947 195.145 63.0947 193.082V187.844H61.7676V186.93L63.1914 186.174L63.8945 184.117H65.1689V186.279H67.9375V187.844H65.1689V193.047C65.1689 193.545 65.292 193.914 65.5381 194.154C65.79 194.389 66.1182 194.506 66.5225 194.506ZM78.5371 196H76.4629V190.023C76.4629 189.273 76.3105 188.714 76.0059 188.345C75.707 187.976 75.2295 187.791 74.5732 187.791C73.7061 187.791 73.0674 188.052 72.6572 188.573C72.2529 189.089 72.0508 189.956 72.0508 191.175V196H69.9854V182.324H72.0508V185.796C72.0508 186.353 72.0156 186.947 71.9453 187.58H72.0771C72.3584 187.111 72.748 186.748 73.2461 186.49C73.75 186.232 74.3359 186.104 75.0039 186.104C77.3594 186.104 78.5371 187.29 78.5371 189.663V196ZM90.0332 191.122C90.0332 192.71 89.626 193.949 88.8115 194.84C87.9971 195.73 86.8633 196.176 85.4102 196.176C84.502 196.176 83.6992 195.971 83.002 195.561C82.3047 195.15 81.7686 194.562 81.3936 193.794C81.0186 193.026 80.8311 192.136 80.8311 191.122C80.8311 189.546 81.2354 188.315 82.0439 187.431C82.8525 186.546 83.9922 186.104 85.4629 186.104C86.8691 186.104 87.9824 186.558 88.8027 187.466C89.623 188.368 90.0332 189.587 90.0332 191.122ZM82.958 191.122C82.958 193.366 83.7871 194.488 85.4453 194.488C87.0859 194.488 87.9062 193.366 87.9062 191.122C87.9062 188.901 87.0801 187.791 85.4277 187.791C84.5605 187.791 83.9307 188.078 83.5381 188.652C83.1514 189.227 82.958 190.05 82.958 191.122ZM95.6934 196.176C94.4805 196.176 93.5342 195.736 92.8545 194.857C92.1748 193.979 91.835 192.745 91.835 191.157C91.835 189.563 92.1777 188.324 92.8633 187.439C93.5547 186.549 94.5098 186.104 95.7285 186.104C97.0059 186.104 97.9785 186.575 98.6465 187.519H98.752C98.6523 186.821 98.6025 186.271 98.6025 185.866V182.324H100.677V196H99.0596L98.6992 194.726H98.6025C97.9404 195.692 96.9707 196.176 95.6934 196.176ZM96.2471 194.506C97.0967 194.506 97.7148 194.269 98.1016 193.794C98.4883 193.313 98.6875 192.537 98.6992 191.465V191.175C98.6992 189.95 98.5 189.08 98.1016 188.564C97.7031 188.049 97.0791 187.791 96.2295 187.791C95.5029 187.791 94.9434 188.087 94.5508 188.679C94.1582 189.265 93.9619 190.103 93.9619 191.192C93.9619 192.271 94.1523 193.094 94.5332 193.662C94.9141 194.225 95.4854 194.506 96.2471 194.506ZM107.875 196.176C106.363 196.176 105.18 195.736 104.324 194.857C103.475 193.973 103.05 192.757 103.05 191.21C103.05 189.622 103.445 188.374 104.236 187.466C105.027 186.558 106.114 186.104 107.497 186.104C108.78 186.104 109.794 186.493 110.538 187.272C111.282 188.052 111.654 189.124 111.654 190.489V191.605H105.177C105.206 192.549 105.461 193.275 105.941 193.785C106.422 194.289 107.099 194.541 107.972 194.541C108.546 194.541 109.079 194.488 109.571 194.383C110.069 194.271 110.603 194.09 111.171 193.838V195.517C110.667 195.757 110.157 195.927 109.642 196.026C109.126 196.126 108.537 196.176 107.875 196.176ZM107.497 187.668C106.841 187.668 106.313 187.876 105.915 188.292C105.522 188.708 105.288 189.314 105.212 190.111H109.624C109.612 189.309 109.419 188.702 109.044 188.292C108.669 187.876 108.153 187.668 107.497 187.668ZM120.531 193.231C120.531 194.181 120.186 194.91 119.494 195.42C118.803 195.924 117.812 196.176 116.523 196.176C115.229 196.176 114.188 195.979 113.403 195.587V193.803C114.546 194.33 115.609 194.594 116.594 194.594C117.865 194.594 118.501 194.21 118.501 193.442C118.501 193.196 118.431 192.991 118.29 192.827C118.149 192.663 117.918 192.493 117.596 192.317C117.273 192.142 116.825 191.942 116.251 191.72C115.132 191.286 114.373 190.853 113.975 190.419C113.582 189.985 113.386 189.423 113.386 188.731C113.386 187.899 113.72 187.255 114.388 186.798C115.062 186.335 115.976 186.104 117.13 186.104C118.272 186.104 119.354 186.335 120.373 186.798L119.705 188.354C118.656 187.92 117.774 187.703 117.06 187.703C115.97 187.703 115.425 188.014 115.425 188.635C115.425 188.939 115.565 189.197 115.847 189.408C116.134 189.619 116.755 189.909 117.71 190.278C118.513 190.589 119.096 190.873 119.459 191.131C119.822 191.389 120.092 191.688 120.268 192.027C120.443 192.361 120.531 192.763 120.531 193.231ZM130.727 196.176C129.514 196.176 128.567 195.736 127.888 194.857C127.208 193.979 126.868 192.745 126.868 191.157C126.868 189.563 127.211 188.324 127.896 187.439C128.588 186.549 129.543 186.104 130.762 186.104C132.039 186.104 133.012 186.575 133.68 187.519H133.785C133.686 186.821 133.636 186.271 133.636 185.866V182.324H135.71V196H134.093L133.732 194.726H133.636C132.974 195.692 132.004 196.176 130.727 196.176ZM131.28 194.506C132.13 194.506 132.748 194.269 133.135 193.794C133.521 193.313 133.721 192.537 133.732 191.465V191.175C133.732 189.95 133.533 189.08 133.135 188.564C132.736 188.049 132.112 187.791 131.263 187.791C130.536 187.791 129.977 188.087 129.584 188.679C129.191 189.265 128.995 190.103 128.995 191.192C128.995 192.271 129.186 193.094 129.566 193.662C129.947 194.225 130.519 194.506 131.28 194.506ZM142.908 196.176C141.396 196.176 140.213 195.736 139.357 194.857C138.508 193.973 138.083 192.757 138.083 191.21C138.083 189.622 138.479 188.374 139.27 187.466C140.061 186.558 141.147 186.104 142.53 186.104C143.813 186.104 144.827 186.493 145.571 187.272C146.315 188.052 146.688 189.124 146.688 190.489V191.605H140.21C140.239 192.549 140.494 193.275 140.975 193.785C141.455 194.289 142.132 194.541 143.005 194.541C143.579 194.541 144.112 194.488 144.604 194.383C145.103 194.271 145.636 194.09 146.204 193.838V195.517C145.7 195.757 145.19 195.927 144.675 196.026C144.159 196.126 143.57 196.176 142.908 196.176ZM142.53 187.668C141.874 187.668 141.347 187.876 140.948 188.292C140.556 188.708 140.321 189.314 140.245 190.111H144.657C144.646 189.309 144.452 188.702 144.077 188.292C143.702 187.876 143.187 187.668 142.53 187.668ZM51.0625 209.768C49.8555 209.768 48.9062 210.195 48.2148 211.051C47.5234 211.906 47.1777 213.087 47.1777 214.593C47.1777 216.169 47.5088 217.361 48.1709 218.17C48.8389 218.979 49.8027 219.383 51.0625 219.383C51.6074 219.383 52.1348 219.33 52.6445 219.225C53.1543 219.113 53.6846 218.973 54.2354 218.803V220.604C53.2275 220.985 52.085 221.176 50.8076 221.176C48.9268 221.176 47.4824 220.607 46.4746 219.471C45.4668 218.328 44.9629 216.696 44.9629 214.575C44.9629 213.239 45.2061 212.07 45.6924 211.068C46.1846 210.066 46.8936 209.299 47.8193 208.766C48.7451 208.232 49.832 207.966 51.0801 207.966C52.3926 207.966 53.6055 208.241 54.7188 208.792L53.9629 210.541C53.5293 210.336 53.0693 210.157 52.583 210.005C52.1025 209.847 51.5957 209.768 51.0625 209.768ZM65.4062 216.122C65.4062 217.71 64.999 218.949 64.1846 219.84C63.3701 220.73 62.2363 221.176 60.7832 221.176C59.875 221.176 59.0723 220.971 58.375 220.561C57.6777 220.15 57.1416 219.562 56.7666 218.794C56.3916 218.026 56.2041 217.136 56.2041 216.122C56.2041 214.546 56.6084 213.315 57.417 212.431C58.2256 211.546 59.3652 211.104 60.8359 211.104C62.2422 211.104 63.3555 211.558 64.1758 212.466C64.9961 213.368 65.4062 214.587 65.4062 216.122ZM58.3311 216.122C58.3311 218.366 59.1602 219.488 60.8184 219.488C62.459 219.488 63.2793 218.366 63.2793 216.122C63.2793 213.901 62.4531 212.791 60.8008 212.791C59.9336 212.791 59.3037 213.078 58.9111 213.652C58.5244 214.227 58.3311 215.05 58.3311 216.122ZM76.3398 221H74.2656V215.023C74.2656 214.273 74.1133 213.714 73.8086 213.345C73.5098 212.976 73.0322 212.791 72.376 212.791C71.5029 212.791 70.8643 213.049 70.46 213.564C70.0557 214.08 69.8535 214.944 69.8535 216.157V221H67.7881V211.279H69.4053L69.6953 212.554H69.8008C70.0938 212.091 70.5098 211.733 71.0488 211.481C71.5879 211.229 72.1855 211.104 72.8418 211.104C75.1738 211.104 76.3398 212.29 76.3398 214.663V221ZM83.1338 221.176C81.6631 221.176 80.5439 220.748 79.7764 219.893C79.0146 219.031 78.6338 217.798 78.6338 216.192C78.6338 214.558 79.0322 213.301 79.8291 212.422C80.6318 211.543 81.7891 211.104 83.3008 211.104C84.3262 211.104 85.249 211.294 86.0693 211.675L85.4453 213.336C84.5723 212.996 83.8516 212.826 83.2832 212.826C81.6016 212.826 80.7607 213.942 80.7607 216.175C80.7607 217.265 80.9688 218.085 81.3848 218.636C81.8066 219.181 82.4219 219.453 83.2305 219.453C84.1504 219.453 85.0205 219.225 85.8408 218.768V220.569C85.4717 220.786 85.0762 220.941 84.6543 221.035C84.2383 221.129 83.7314 221.176 83.1338 221.176ZM92.3711 221.176C90.8594 221.176 89.6758 220.736 88.8203 219.857C87.9707 218.973 87.5459 217.757 87.5459 216.21C87.5459 214.622 87.9414 213.374 88.7324 212.466C89.5234 211.558 90.6104 211.104 91.9932 211.104C93.2764 211.104 94.29 211.493 95.0342 212.272C95.7783 213.052 96.1504 214.124 96.1504 215.489V216.605H89.6729C89.7021 217.549 89.957 218.275 90.4375 218.785C90.918 219.289 91.5947 219.541 92.4678 219.541C93.042 219.541 93.5752 219.488 94.0674 219.383C94.5654 219.271 95.0986 219.09 95.667 218.838V220.517C95.1631 220.757 94.6533 220.927 94.1377 221.026C93.6221 221.126 93.0332 221.176 92.3711 221.176ZM91.9932 212.668C91.3369 212.668 90.8096 212.876 90.4111 213.292C90.0186 213.708 89.7842 214.314 89.708 215.111H94.1201C94.1084 214.309 93.915 213.702 93.54 213.292C93.165 212.876 92.6494 212.668 91.9932 212.668ZM103.428 221.176C102.197 221.176 101.242 220.733 100.562 219.849H100.439C100.521 220.669 100.562 221.167 100.562 221.343V225.324H98.4971V211.279H100.167C100.214 211.461 100.311 211.895 100.457 212.58H100.562C101.207 211.596 102.174 211.104 103.463 211.104C104.676 211.104 105.619 211.543 106.293 212.422C106.973 213.301 107.312 214.534 107.312 216.122C107.312 217.71 106.967 218.949 106.275 219.84C105.59 220.73 104.641 221.176 103.428 221.176ZM102.927 212.791C102.106 212.791 101.506 213.031 101.125 213.512C100.75 213.992 100.562 214.76 100.562 215.814V216.122C100.562 217.306 100.75 218.164 101.125 218.697C101.5 219.225 102.112 219.488 102.962 219.488C103.677 219.488 104.228 219.195 104.614 218.609C105.001 218.023 105.194 217.188 105.194 216.104C105.194 215.015 105.001 214.191 104.614 213.635C104.233 213.072 103.671 212.791 102.927 212.791ZM113.333 219.506C113.837 219.506 114.341 219.427 114.845 219.269V220.824C114.616 220.924 114.32 221.006 113.957 221.07C113.6 221.141 113.228 221.176 112.841 221.176C110.884 221.176 109.905 220.145 109.905 218.082V212.844H108.578V211.93L110.002 211.174L110.705 209.117H111.979V211.279H114.748V212.844H111.979V218.047C111.979 218.545 112.103 218.914 112.349 219.154C112.601 219.389 112.929 219.506 113.333 219.506ZM118.861 221H116.796V211.279H118.861V221ZM116.673 208.704C116.673 208.335 116.772 208.051 116.972 207.852C117.177 207.652 117.467 207.553 117.842 207.553C118.205 207.553 118.486 207.652 118.686 207.852C118.891 208.051 118.993 208.335 118.993 208.704C118.993 209.056 118.891 209.334 118.686 209.539C118.486 209.738 118.205 209.838 117.842 209.838C117.467 209.838 117.177 209.738 116.972 209.539C116.772 209.334 116.673 209.056 116.673 208.704ZM130.445 216.122C130.445 217.71 130.038 218.949 129.224 219.84C128.409 220.73 127.275 221.176 125.822 221.176C124.914 221.176 124.111 220.971 123.414 220.561C122.717 220.15 122.181 219.562 121.806 218.794C121.431 218.026 121.243 217.136 121.243 216.122C121.243 214.546 121.647 213.315 122.456 212.431C123.265 211.546 124.404 211.104 125.875 211.104C127.281 211.104 128.395 211.558 129.215 212.466C130.035 213.368 130.445 214.587 130.445 216.122ZM123.37 216.122C123.37 218.366 124.199 219.488 125.857 219.488C127.498 219.488 128.318 218.366 128.318 216.122C128.318 213.901 127.492 212.791 125.84 212.791C124.973 212.791 124.343 213.078 123.95 213.652C123.563 214.227 123.37 215.05 123.37 216.122ZM141.379 221H139.305V215.023C139.305 214.273 139.152 213.714 138.848 213.345C138.549 212.976 138.071 212.791 137.415 212.791C136.542 212.791 135.903 213.049 135.499 213.564C135.095 214.08 134.893 214.944 134.893 216.157V221H132.827V211.279H134.444L134.734 212.554H134.84C135.133 212.091 135.549 211.733 136.088 211.481C136.627 211.229 137.225 211.104 137.881 211.104C140.213 211.104 141.379 212.29 141.379 214.663V221ZM39.5137 246.176C38.3008 246.176 37.3545 245.736 36.6748 244.857C35.9951 243.979 35.6553 242.745 35.6553 241.157C35.6553 239.563 35.998 238.324 36.6836 237.439C37.375 236.549 38.3301 236.104 39.5488 236.104C40.8262 236.104 41.7988 236.575 42.4668 237.519H42.5723C42.4727 236.821 42.4229 236.271 42.4229 235.866V232.324H44.4971V246H42.8799L42.5195 244.726H42.4229C41.7607 245.692 40.791 246.176 39.5137 246.176ZM40.0674 244.506C40.917 244.506 41.5352 244.269 41.9219 243.794C42.3086 243.313 42.5078 242.537 42.5195 241.465V241.175C42.5195 239.95 42.3203 239.08 41.9219 238.564C41.5234 238.049 40.8994 237.791 40.0498 237.791C39.3232 237.791 38.7637 238.087 38.3711 238.679C37.9785 239.265 37.7822 240.103 37.7822 241.192C37.7822 242.271 37.9727 243.094 38.3535 243.662C38.7344 244.225 39.3057 244.506 40.0674 244.506ZM51.6953 246.176C50.1836 246.176 49 245.736 48.1445 244.857C47.2949 243.973 46.8701 242.757 46.8701 241.21C46.8701 239.622 47.2656 238.374 48.0566 237.466C48.8477 236.558 49.9346 236.104 51.3174 236.104C52.6006 236.104 53.6143 236.493 54.3584 237.272C55.1025 238.052 55.4746 239.124 55.4746 240.489V241.605H48.9971C49.0264 242.549 49.2812 243.275 49.7617 243.785C50.2422 244.289 50.9189 244.541 51.792 244.541C52.3662 244.541 52.8994 244.488 53.3916 244.383C53.8896 244.271 54.4229 244.09 54.9912 243.838V245.517C54.4873 245.757 53.9775 245.927 53.4619 246.026C52.9463 246.126 52.3574 246.176 51.6953 246.176ZM51.3174 237.668C50.6611 237.668 50.1338 237.876 49.7354 238.292C49.3428 238.708 49.1084 239.314 49.0322 240.111H53.4443C53.4326 239.309 53.2393 238.702 52.8643 238.292C52.4893 237.876 51.9736 237.668 51.3174 237.668ZM64.3516 243.231C64.3516 244.181 64.0059 244.91 63.3145 245.42C62.623 245.924 61.6328 246.176 60.3438 246.176C59.0488 246.176 58.0088 245.979 57.2236 245.587V243.803C58.3662 244.33 59.4297 244.594 60.4141 244.594C61.6855 244.594 62.3213 244.21 62.3213 243.442C62.3213 243.196 62.251 242.991 62.1104 242.827C61.9697 242.663 61.7383 242.493 61.416 242.317C61.0938 242.142 60.6455 241.942 60.0713 241.72C58.9521 241.286 58.1934 240.853 57.7949 240.419C57.4023 239.985 57.2061 239.423 57.2061 238.731C57.2061 237.899 57.54 237.255 58.208 236.798C58.8818 236.335 59.7959 236.104 60.9502 236.104C62.0928 236.104 63.1738 236.335 64.1934 236.798L63.5254 238.354C62.4766 237.92 61.5947 237.703 60.8799 237.703C59.79 237.703 59.2451 238.014 59.2451 238.635C59.2451 238.939 59.3857 239.197 59.667 239.408C59.9541 239.619 60.5752 239.909 61.5303 240.278C62.333 240.589 62.916 240.873 63.2793 241.131C63.6426 241.389 63.9121 241.688 64.0879 242.027C64.2637 242.361 64.3516 242.763 64.3516 243.231ZM78.8975 242.511C78.8975 243.653 78.4844 244.55 77.6582 245.2C76.832 245.851 75.6924 246.176 74.2393 246.176C72.7861 246.176 71.5967 245.95 70.6709 245.499V243.513C71.2568 243.788 71.8779 244.005 72.5342 244.163C73.1963 244.321 73.8115 244.4 74.3799 244.4C75.2119 244.4 75.8242 244.242 76.2168 243.926C76.6152 243.609 76.8145 243.185 76.8145 242.651C76.8145 242.171 76.6328 241.764 76.2695 241.43C75.9062 241.096 75.1562 240.7 74.0195 240.243C72.8477 239.769 72.0215 239.227 71.541 238.617C71.0605 238.008 70.8203 237.275 70.8203 236.42C70.8203 235.348 71.2012 234.504 71.9629 233.889C72.7246 233.273 73.7471 232.966 75.0303 232.966C76.2607 232.966 77.4854 233.235 78.7041 233.774L78.0361 235.488C76.8936 235.008 75.874 234.768 74.9775 234.768C74.2979 234.768 73.7822 234.917 73.4307 235.216C73.0791 235.509 72.9033 235.898 72.9033 236.385C72.9033 236.719 72.9736 237.006 73.1143 237.246C73.2549 237.48 73.4863 237.703 73.8086 237.914C74.1309 238.125 74.7109 238.403 75.5488 238.749C76.4922 239.142 77.1836 239.508 77.623 239.848C78.0625 240.188 78.3848 240.571 78.5898 240.999C78.7949 241.427 78.8975 241.931 78.8975 242.511ZM79.6885 236.279H81.9385L83.916 241.79C84.2148 242.575 84.4141 243.313 84.5137 244.005H84.584C84.6367 243.683 84.7334 243.293 84.874 242.836C85.0146 242.373 85.7588 240.188 87.1064 236.279H89.3389L85.1816 247.292C84.4258 249.313 83.166 250.324 81.4023 250.324C80.9453 250.324 80.5 250.274 80.0664 250.175V248.54C80.377 248.61 80.7314 248.646 81.1299 248.646C82.126 248.646 82.8262 248.068 83.2305 246.914L83.5908 246L79.6885 236.279ZM97.3457 243.231C97.3457 244.181 97 244.91 96.3086 245.42C95.6172 245.924 94.627 246.176 93.3379 246.176C92.043 246.176 91.0029 245.979 90.2178 245.587V243.803C91.3604 244.33 92.4238 244.594 93.4082 244.594C94.6797 244.594 95.3154 244.21 95.3154 243.442C95.3154 243.196 95.2451 242.991 95.1045 242.827C94.9639 242.663 94.7324 242.493 94.4102 242.317C94.0879 242.142 93.6396 241.942 93.0654 241.72C91.9463 241.286 91.1875 240.853 90.7891 240.419C90.3965 239.985 90.2002 239.423 90.2002 238.731C90.2002 237.899 90.5342 237.255 91.2021 236.798C91.876 236.335 92.79 236.104 93.9443 236.104C95.0869 236.104 96.168 236.335 97.1875 236.798L96.5195 238.354C95.4707 237.92 94.5889 237.703 93.874 237.703C92.7842 237.703 92.2393 238.014 92.2393 238.635C92.2393 238.939 92.3799 239.197 92.6611 239.408C92.9482 239.619 93.5693 239.909 94.5244 240.278C95.3271 240.589 95.9102 240.873 96.2734 241.131C96.6367 241.389 96.9062 241.688 97.082 242.027C97.2578 242.361 97.3457 242.763 97.3457 243.231ZM103.208 244.506C103.712 244.506 104.216 244.427 104.72 244.269V245.824C104.491 245.924 104.195 246.006 103.832 246.07C103.475 246.141 103.103 246.176 102.716 246.176C100.759 246.176 99.7803 245.145 99.7803 243.082V237.844H98.4531V236.93L99.877 236.174L100.58 234.117H101.854V236.279H104.623V237.844H101.854V243.047C101.854 243.545 101.978 243.914 102.224 244.154C102.476 244.389 102.804 244.506 103.208 244.506ZM110.916 246.176C109.404 246.176 108.221 245.736 107.365 244.857C106.516 243.973 106.091 242.757 106.091 241.21C106.091 239.622 106.486 238.374 107.277 237.466C108.068 236.558 109.155 236.104 110.538 236.104C111.821 236.104 112.835 236.493 113.579 237.272C114.323 238.052 114.695 239.124 114.695 240.489V241.605H108.218C108.247 242.549 108.502 243.275 108.982 243.785C109.463 244.289 110.14 244.541 111.013 244.541C111.587 244.541 112.12 244.488 112.612 244.383C113.11 244.271 113.644 244.09 114.212 243.838V245.517C113.708 245.757 113.198 245.927 112.683 246.026C112.167 246.126 111.578 246.176 110.916 246.176ZM110.538 237.668C109.882 237.668 109.354 237.876 108.956 238.292C108.563 238.708 108.329 239.314 108.253 240.111H112.665C112.653 239.309 112.46 238.702 112.085 238.292C111.71 237.876 111.194 237.668 110.538 237.668ZM110.547 235.093C110.143 234.788 109.63 234.349 109.009 233.774C108.394 233.194 107.945 232.734 107.664 232.395V232.21H110.063C110.286 232.62 110.588 233.092 110.969 233.625C111.355 234.158 111.678 234.574 111.936 234.873V235.093H110.547ZM125.233 246H123.159V240.006C123.159 239.262 123.019 238.708 122.737 238.345C122.456 237.976 122.017 237.791 121.419 237.791C120.622 237.791 120.036 238.052 119.661 238.573C119.292 239.089 119.107 239.95 119.107 241.157V246H117.042V236.279H118.659L118.949 237.554H119.055C119.324 237.091 119.714 236.733 120.224 236.481C120.739 236.229 121.305 236.104 121.92 236.104C123.414 236.104 124.404 236.613 124.891 237.633H125.031C125.318 237.152 125.723 236.777 126.244 236.508C126.766 236.238 127.363 236.104 128.037 236.104C129.197 236.104 130.041 236.396 130.568 236.982C131.102 237.568 131.368 238.462 131.368 239.663V246H129.303V240.006C129.303 239.262 129.159 238.708 128.872 238.345C128.591 237.976 128.151 237.791 127.554 237.791C126.751 237.791 126.162 238.043 125.787 238.547C125.418 239.045 125.233 239.812 125.233 240.85V246ZM138.496 246.176C136.984 246.176 135.801 245.736 134.945 244.857C134.096 243.973 133.671 242.757 133.671 241.21C133.671 239.622 134.066 238.374 134.857 237.466C135.648 236.558 136.735 236.104 138.118 236.104C139.401 236.104 140.415 236.493 141.159 237.272C141.903 238.052 142.275 239.124 142.275 240.489V241.605H135.798C135.827 242.549 136.082 243.275 136.562 243.785C137.043 244.289 137.72 244.541 138.593 244.541C139.167 244.541 139.7 244.488 140.192 244.383C140.69 244.271 141.224 244.09 141.792 243.838V245.517C141.288 245.757 140.778 245.927 140.263 246.026C139.747 246.126 139.158 246.176 138.496 246.176ZM138.118 237.668C137.462 237.668 136.935 237.876 136.536 238.292C136.144 238.708 135.909 239.314 135.833 240.111H140.245C140.233 239.309 140.04 238.702 139.665 238.292C139.29 237.876 138.774 237.668 138.118 237.668ZM151.152 243.231C151.152 244.181 150.807 244.91 150.115 245.42C149.424 245.924 148.434 246.176 147.145 246.176C145.85 246.176 144.81 245.979 144.024 245.587V243.803C145.167 244.33 146.23 244.594 147.215 244.594C148.486 244.594 149.122 244.21 149.122 243.442C149.122 243.196 149.052 242.991 148.911 242.827C148.771 242.663 148.539 242.493 148.217 242.317C147.895 242.142 147.446 241.942 146.872 241.72C145.753 241.286 144.994 240.853 144.596 240.419C144.203 239.985 144.007 239.423 144.007 238.731C144.007 237.899 144.341 237.255 145.009 236.798C145.683 236.335 146.597 236.104 147.751 236.104C148.894 236.104 149.975 236.335 150.994 236.798L150.326 238.354C149.277 237.92 148.396 237.703 147.681 237.703C146.591 237.703 146.046 238.014 146.046 238.635C146.046 238.939 146.187 239.197 146.468 239.408C146.755 239.619 147.376 239.909 148.331 240.278C149.134 240.589 149.717 240.873 150.08 241.131C150.443 241.389 150.713 241.688 150.889 242.027C151.064 242.361 151.152 242.763 151.152 243.231Z" fill="white"/>
</svg>
